<mxfile host="app.diagrams.net" agent="Mozilla/5.0 (Macintosh; Intel Mac OS X 10.15; rv:139.0) Gecko/20100101 Firefox/139.0" version="27.2.0">
  <diagram name="Page-1" id="Hq1z_RH9I0ar2jAiMPid">
    <mxGraphModel dx="885" dy="582" grid="1" gridSize="10" guides="1" tooltips="1" connect="1" arrows="1" fold="1" page="1" pageScale="1" pageWidth="850" pageHeight="1100" math="0" shadow="0">
      <root>
        <mxCell id="0" />
        <mxCell id="1" parent="0" />
        <mxCell id="6nUKozUmhhgNG7bo27WB-2" value="&lt;div&gt;P, ID&lt;/div&gt;" style="text;html=1;align=center;verticalAlign=middle;resizable=0;points=[];autosize=1;strokeColor=none;fillColor=none;" vertex="1" parent="1">
          <mxGeometry x="15" y="18" width="50" height="30" as="geometry" />
        </mxCell>
        <mxCell id="6nUKozUmhhgNG7bo27WB-7" value="" style="edgeStyle=orthogonalEdgeStyle;rounded=0;orthogonalLoop=1;jettySize=auto;html=1;" edge="1" parent="1" source="6nUKozUmhhgNG7bo27WB-3" target="6nUKozUmhhgNG7bo27WB-6">
          <mxGeometry relative="1" as="geometry" />
        </mxCell>
        <mxCell id="6nUKozUmhhgNG7bo27WB-3" value="&lt;div&gt;ouvre app&lt;/div&gt;" style="whiteSpace=wrap;html=1;" vertex="1" parent="1">
          <mxGeometry x="170" y="30" width="120" height="60" as="geometry" />
        </mxCell>
        <mxCell id="6nUKozUmhhgNG7bo27WB-9" value="" style="edgeStyle=orthogonalEdgeStyle;rounded=0;orthogonalLoop=1;jettySize=auto;html=1;" edge="1" parent="1" source="6nUKozUmhhgNG7bo27WB-6" target="6nUKozUmhhgNG7bo27WB-8">
          <mxGeometry relative="1" as="geometry" />
        </mxCell>
        <mxCell id="6nUKozUmhhgNG7bo27WB-11" value="non" style="edgeStyle=orthogonalEdgeStyle;rounded=0;orthogonalLoop=1;jettySize=auto;html=1;" edge="1" parent="1" source="6nUKozUmhhgNG7bo27WB-6" target="6nUKozUmhhgNG7bo27WB-10">
          <mxGeometry relative="1" as="geometry" />
        </mxCell>
        <mxCell id="6nUKozUmhhgNG7bo27WB-6" value="&lt;div&gt;déjà&amp;nbsp;&lt;/div&gt;&lt;div&gt;identifier&lt;/div&gt;" style="rhombus;whiteSpace=wrap;html=1;" vertex="1" parent="1">
          <mxGeometry x="190" y="160" width="80" height="80" as="geometry" />
        </mxCell>
        <mxCell id="6nUKozUmhhgNG7bo27WB-8" value="" style="whiteSpace=wrap;html=1;" vertex="1" parent="1">
          <mxGeometry x="330" y="170" width="120" height="60" as="geometry" />
        </mxCell>
        <mxCell id="6nUKozUmhhgNG7bo27WB-10" value="saisi id" style="whiteSpace=wrap;html=1;" vertex="1" parent="1">
          <mxGeometry x="170" y="330" width="120" height="60" as="geometry" />
        </mxCell>
      </root>
    </mxGraphModel>
  </diagram>
</mxfile>
